<?xml version="1.0" standalone="no"?>
<!DOCTYPE svg PUBLIC "-//W3C//DTD SVG 20010904//EN"
 "http://www.w3.org/TR/2001/REC-SVG-20010904/DTD/svg10.dtd">
<svg version="1.0" xmlns="http://www.w3.org/2000/svg"
 width="1080.000000pt" height="1080.000000pt" viewBox="0 0 1080.000000 1080.000000"
 preserveAspectRatio="xMidYMid meet">

<g transform="translate(0.000000,1080.000000) scale(0.100000,-0.100000)"
fill="#000000" stroke="none">
<path d="M5531 8678 c-23 -167 -41 -308 -41 -314 0 -10 69 -28 77 -20 1 1 14
83 28 182 31 213 53 270 118 308 120 70 273 24 308 -93 11 -38 10 -67 -16
-247 -15 -113 -26 -206 -24 -208 2 -2 21 -6 41 -9 44 -7 37 -27 73 232 26 192
25 240 -6 302 -69 137 -311 175 -427 66 l-23 -21 7 57 c6 52 5 57 -12 57 -11
0 -28 3 -40 6 -20 5 -22 -4 -63 -298z"/>
<path d="M4010 8955 c-21 -7 -34 -18 -32 -26 2 -8 69 -197 149 -421 l146 -407
35 15 c20 8 37 16 39 18 2 2 -10 40 -26 85 l-30 82 48 90 48 89 171 -106 172
-106 51 17 50 17 -193 120 c-106 66 -197 124 -201 128 -5 4 28 80 72 169 45
88 81 163 81 165 0 2 -21 -4 -47 -14 l-48 -17 -115 -216 c-63 -119 -118 -219
-121 -222 -3 -3 -50 117 -104 267 -53 150 -100 276 -104 279 -3 4 -22 1 -41
-6z"/>
<path d="M5004 8949 c-67 -16 -146 -69 -181 -122 -41 -61 -53 -104 -53 -189 0
-125 57 -226 161 -283 50 -28 61 -30 159 -30 95 0 111 3 162 28 50 25 109 76
108 95 0 4 -12 15 -26 26 -26 18 -26 18 -57 -12 -119 -115 -343 -79 -403 64
-25 60 -28 59 149 78 89 9 206 22 261 28 l98 11 -6 44 c-14 105 -85 202 -177
242 -55 25 -140 33 -195 20z m160 -83 c66 -28 150 -145 118 -165 -14 -9 -423
-53 -430 -47 -2 3 -1 26 2 51 9 58 58 123 116 153 52 26 142 30 194 8z"/>
<path d="M6909 8689 c-58 -136 -75 -166 -80 -148 -31 117 -142 199 -282 207
-72 4 -82 2 -142 -27 -193 -95 -247 -364 -103 -510 91 -91 219 -124 326 -83
28 11 52 19 52 17 0 -1 -9 -24 -21 -50 -11 -25 -19 -48 -17 -50 1 -1 17 -10
35 -19 30 -15 33 -15 42 1 6 14 308 717 338 790 4 11 -44 43 -65 43 -6 0 -43
-77 -83 -171z m-271 -35 c85 -35 142 -120 142 -214 0 -147 -123 -271 -255
-257 -130 13 -219 108 -218 232 2 98 57 195 134 233 53 26 142 29 197 6z"/>
<path d="M3750 8521 c-98 -30 -186 -105 -225 -192 -24 -55 -27 -71 -23 -138 6
-95 38 -161 115 -231 68 -62 131 -84 223 -78 123 9 248 99 284 205 23 68 21
80 -16 86 -40 6 -48 2 -48 -24 0 -56 -66 -135 -140 -168 -95 -43 -195 -19
-267 63 -100 114 -96 246 10 343 54 49 110 68 184 59 45 -5 54 -3 63 13 5 11
10 26 10 34 0 30 -106 47 -170 28z"/>
<path d="M3155 8058 c-107 -38 -217 -174 -238 -294 -6 -29 -3 -32 25 -38 44
-9 48 -8 48 12 0 67 84 193 151 227 56 30 140 12 188 -39 l22 -24 -101 -106
c-110 -116 -130 -150 -130 -223 0 -60 34 -115 90 -143 53 -27 106 -25 167 6
95 47 162 145 163 238 l0 50 35 -34 35 -34 28 27 27 28 -165 163 c-138 136
-173 165 -214 179 -56 19 -87 20 -131 5z m288 -247 c64 -71 58 -167 -16 -248
-49 -53 -84 -73 -129 -73 -41 0 -73 21 -94 62 -28 54 -13 89 89 198 51 54 97
98 103 99 7 1 27 -16 47 -38z"/>
<path d="M6841 7994 c-12 -15 -21 -32 -21 -39 0 -24 41 -65 66 -65 31 0 64 33
64 65 0 32 -33 65 -64 65 -15 0 -33 -11 -45 -26z"/>
<path d="M7771 7685 c-183 -123 -337 -227 -342 -232 -13 -13 212 -343 269
-394 26 -23 76 -56 112 -73 59 -28 74 -31 165 -31 92 0 106 3 168 32 215 102
303 319 220 538 -20 51 -238 386 -251 384 -4 0 -157 -101 -341 -224z m418 -14
c104 -158 124 -211 119 -316 -5 -87 -25 -138 -78 -199 -71 -80 -199 -133 -295
-120 -124 15 -194 71 -314 248 l-90 133 277 186 c152 102 283 186 290 186 7 1
48 -53 91 -118z"/>
<path d="M2512 7594 c-29 -14 -67 -45 -86 -67 -33 -42 -240 -396 -234 -402 2
-1 166 -95 365 -208 l363 -205 103 181 c116 205 142 262 152 328 21 140 -92
250 -246 241 -15 -1 -50 -18 -78 -37 -29 -19 -49 -30 -46 -25 3 4 0 32 -6 60
-13 62 -52 110 -113 139 -57 28 -111 27 -174 -5z m173 -98 c46 -36 62 -88 46
-153 -9 -35 -141 -289 -167 -322 -3 -3 -250 133 -263 145 -6 5 146 269 174
302 56 67 144 78 210 28z m340 -141 c61 -35 82 -83 67 -154 -11 -51 -177 -371
-193 -371 -11 0 -259 141 -264 151 -7 10 144 276 186 330 55 70 132 87 204 44z"/>
<path d="M8143 6872 c-111 -40 -188 -121 -214 -225 -24 -97 11 -231 82 -311
36 -40 97 -84 103 -74 38 58 38 53 -8 86 -82 59 -128 200 -96 296 22 68 126
161 139 125 3 -8 39 -120 81 -249 85 -262 74 -248 160 -207 98 46 170 160 170
266 0 110 -64 221 -159 274 -70 40 -178 47 -258 19z m212 -81 c56 -25 101 -81
121 -147 19 -66 13 -111 -22 -172 -23 -39 -98 -101 -109 -90 -6 5 -135 409
-135 420 0 15 105 7 145 -11z"/>
<path d="M2696 6324 c-9 -8 -16 -28 -16 -44 0 -49 44 -73 95 -54 37 15 38 82
1 106 -19 13 -64 9 -80 -8z"/>
<path d="M8350 6110 c-157 -88 -289 -160 -294 -162 -4 -2 -4 -24 1 -48 l9 -45
322 -111 322 -111 0 38 c0 26 -5 41 -17 47 -10 5 -134 49 -275 97 -142 49
-258 91 -258 94 0 3 113 67 250 141 l249 135 1 43 c0 27 -4 42 -12 41 -7 0
-141 -72 -298 -159z"/>
<path d="M1860 6123 c0 -10 -3 -28 -6 -39 -5 -20 -1 -22 63 -28 37 -3 123 -8
189 -12 l122 -6 -41 -37 c-61 -55 -87 -119 -87 -216 0 -64 5 -91 24 -132 51
-108 157 -174 286 -176 83 -2 143 15 202 59 143 103 168 337 49 449 l-33 30
59 5 58 5 3 38 c3 37 3 37 -35 37 -21 0 -202 9 -403 20 -458 25 -450 25 -450
3z m675 -121 c83 -42 125 -113 125 -209 -1 -166 -154 -270 -324 -219 -153 46
-214 223 -123 356 47 70 120 102 217 97 40 -3 81 -12 105 -25z"/>
<path d="M8233 5554 c-60 -22 -137 -95 -168 -159 -51 -104 -43 -264 16 -340
l21 -25 28 20 28 20 -25 46 c-31 55 -36 133 -14 209 26 89 125 165 214 165 23
0 26 -3 21 -27 -8 -49 -64 -467 -64 -485 0 -15 10 -18 70 -18 183 0 310 124
310 304 0 123 -60 220 -167 272 -70 35 -202 43 -270 18z m269 -110 c172 -111
96 -403 -105 -404 -37 0 -38 1 -32 33 5 32 55 397 55 404 0 9 47 -10 82 -33z"/>
<path d="M2530 5355 c-235 -52 -269 -64 -320 -122 -51 -58 -68 -127 -51 -210
20 -99 65 -169 131 -203 l35 -18 -40 -11 c-22 -6 -46 -11 -54 -11 -10 0 -12
-9 -8 -36 3 -20 8 -39 11 -41 4 -5 478 92 578 118 35 9 37 11 31 42 -3 18 -9
35 -13 40 -3 4 -80 -8 -169 -28 -238 -51 -303 -46 -368 28 -32 37 -63 118 -63
167 0 46 42 113 86 137 23 13 122 40 230 63 103 23 190 43 193 45 2 3 0 22 -5
43 l-9 39 -195 -42z"/>
<path d="M7940 4864 c-7 -19 -10 -37 -8 -38 4 -4 833 -266 841 -266 8 0 30 70
24 76 -7 7 -819 264 -834 264 -6 0 -17 -16 -23 -36z"/>
<path d="M2789 4648 c-9 -21 -9 -33 -2 -35 6 -2 31 -17 56 -33 137 -87 160
-306 41 -397 -19 -14 -36 -24 -38 -22 -2 2 -54 107 -115 233 -61 126 -113 232
-116 234 -8 8 -90 -46 -127 -85 -139 -144 -93 -390 90 -480 117 -58 268 -29
370 70 72 70 87 107 87 217 0 85 -3 101 -30 153 -43 85 -111 149 -181 171 -17
5 -24 0 -35 -26z m-99 -318 c55 -109 96 -202 91 -205 -22 -13 -100 -16 -141
-5 -31 8 -59 26 -90 59 -93 95 -94 220 -2 314 20 20 37 37 39 37 2 0 48 -90
103 -200z"/>
<path d="M7960 4606 c-179 -48 -286 -256 -220 -428 58 -154 252 -246 409 -193
71 23 143 91 183 172 71 145 29 305 -104 396 -52 36 -147 68 -198 66 -14 0
-45 -6 -70 -13z m189 -107 c162 -81 188 -269 53 -391 -82 -74 -185 -76 -295
-6 -123 79 -144 241 -45 354 71 80 180 97 287 43z"/>
<path d="M7366 4221 l-27 -29 125 -113 125 -114 -51 -8 c-72 -10 -130 -39
-178 -87 -132 -132 -127 -330 11 -454 143 -128 309 -127 440 3 66 67 93 132
87 215 -3 60 5 62 51 12 30 -32 40 -32 67 2 l21 27 -315 285 c-173 157 -318
286 -321 288 -4 1 -19 -11 -35 -27z m336 -366 c88 -59 127 -125 128 -218 1
-218 -266 -311 -415 -145 -48 52 -68 101 -67 164 1 90 52 172 135 214 60 31
160 24 219 -15z"/>
<path d="M3117 4153 c-14 -25 -13 -28 17 -48 38 -26 76 -81 76 -111 0 -12 -12
-36 -26 -53 -26 -31 -323 -266 -328 -259 -1 1 -28 36 -60 76 l-57 72 -24 -17
c-13 -10 -25 -22 -25 -26 0 -5 21 -36 47 -70 25 -34 50 -67 55 -73 6 -8 -8
-24 -42 -49 -27 -20 -50 -41 -50 -46 0 -6 10 -23 22 -39 l21 -29 50 39 c27 22
53 40 57 40 5 0 23 -18 40 -40 l32 -40 29 21 30 21 -36 43 -35 44 67 53 c38
30 113 89 169 131 109 83 144 130 144 191 0 62 -46 136 -108 173 -47 29 -48
29 -65 -4z"/>
<path d="M3324 3679 c-147 -174 -170 -207 -183 -267 -25 -116 44 -229 176
-289 42 -19 66 -24 112 -21 64 3 68 -5 22 -46 -27 -25 -26 -37 4 -66 31 -29 4
-54 230 215 92 110 177 210 188 222 l19 22 -28 25 c-16 14 -32 26 -35 26 -4 0
-62 -65 -129 -145 -101 -120 -131 -149 -176 -171 -45 -22 -63 -26 -101 -20
-81 11 -158 67 -188 138 -37 91 -24 115 264 451 14 17 13 20 -14 42 -17 13
-33 24 -36 25 -3 0 -59 -63 -125 -141z"/>
<path d="M6928 3481 c-104 -41 -186 -123 -213 -215 l-14 -47 29 -6 c39 -7 43
-5 57 35 17 49 63 102 118 137 44 27 57 30 131 30 76 0 85 -2 126 -31 23 -18
44 -38 45 -45 2 -8 -88 -74 -212 -157 l-216 -143 18 -30 c26 -44 79 -88 141
-117 106 -48 234 -25 329 61 87 79 117 214 72 332 -30 79 -122 174 -193 198
-64 22 -159 21 -218 -2z m342 -241 c20 -49 9 -151 -23 -198 -35 -54 -105 -94
-173 -100 -44 -4 -64 1 -107 22 -30 14 -62 35 -71 45 -17 19 -13 23 161 140
98 66 183 120 189 120 6 1 17 -12 24 -29z"/>
<path d="M4015 3297 c-62 -21 -97 -42 -136 -84 -86 -89 -120 -225 -84 -332 22
-68 96 -148 172 -186 51 -26 69 -30 143 -30 73 0 92 4 136 27 154 81 224 281
151 430 -51 104 -158 174 -279 183 -38 3 -79 0 -103 -8z m200 -95 c143 -73
168 -256 54 -386 -102 -116 -290 -97 -373 37 -70 114 -12 291 117 357 52 26
142 23 202 -8z"/>
<path d="M6482 3234 c-19 -9 -32 -20 -29 -27 103 -241 140 -346 140 -397 0
-82 -34 -135 -110 -174 -36 -18 -38 -24 -21 -61 14 -31 21 -31 74 0 50 29 82
71 99 128 l12 42 23 -52 c12 -29 24 -53 27 -53 2 0 19 6 37 14 l34 14 -90 219
c-49 120 -103 251 -120 291 -16 39 -33 72 -36 71 -4 0 -22 -7 -40 -15z"/>
<path d="M6085 3085 c-28 -27 -30 -37 -14 -68 16 -29 28 -37 60 -37 54 0 79
70 39 110 -27 27 -56 25 -85 -5z"/>
<path d="M4776 3071 c-3 -4 -23 -81 -46 -172 -23 -90 -53 -186 -68 -212 -41
-77 -128 -117 -209 -99 l-41 9 -10 -38 c-9 -37 -8 -40 14 -45 14 -4 53 -4 89
-2 55 3 70 9 106 38 40 32 42 33 36 9 -4 -13 -10 -40 -13 -60 -6 -35 -5 -37
26 -44 18 -4 35 -3 40 1 8 10 150 562 150 586 0 15 -67 42 -74 29z"/>
<path d="M5425 2988 c-2 -7 -7 -89 -10 -182 l-7 -168 -62 6 c-33 3 -132 8
-219 12 l-158 6 3 -38 3 -39 213 -9 212 -9 0 -51 c0 -28 -3 -102 -7 -165 l-6
-114 -186 7 c-102 4 -212 9 -243 13 l-58 6 0 -42 0 -41 43 -1 c23 0 150 -6
282 -13 132 -7 242 -11 244 -9 2 1 13 188 24 414 22 448 23 429 -36 429 -15 0
-29 -6 -32 -12z"/>
</g>
</svg>
