<?xml version="1.0" standalone="no"?>
<!DOCTYPE svg PUBLIC "-//W3C//DTD SVG 20010904//EN"
 "http://www.w3.org/TR/2001/REC-SVG-20010904/DTD/svg10.dtd">
<svg version="1.0" xmlns="http://www.w3.org/2000/svg"
 width="1080.000000pt" height="1080.000000pt" viewBox="0 0 1080.000000 1080.000000"
 preserveAspectRatio="xMidYMid meet">

<g transform="translate(0.000000,1080.000000) scale(0.100000,-0.100000)"
fill="#000000" stroke="none">
<path d="M4870 9153 c0 -73 29 -420 42 -488 6 -33 12 -123 15 -200 2 -77 8
-144 12 -148 5 -5 24 -5 43 -2 l34 7 -7 51 c-16 112 -15 117 57 195 36 40 70
72 74 72 7 0 91 -84 252 -253 23 -23 35 -28 65 -25 21 2 38 8 38 14 0 6 -63
77 -140 157 -77 81 -143 154 -148 163 -8 15 48 86 175 218 26 28 45 54 42 58
-3 4 -18 8 -35 8 -37 0 -68 -28 -245 -220 -76 -83 -141 -150 -144 -150 -7 0
-34 277 -46 460 -8 128 -9 130 -50 130 -34 0 -34 0 -34 -47z"/>
<path d="M5740 8917 c-157 -61 -239 -253 -178 -414 27 -70 94 -141 164 -174
40 -18 67 -23 149 -23 87 -1 106 2 143 23 48 27 54 33 46 55 -9 23 -35 24 -76
4 -58 -28 -175 -25 -237 7 -81 41 -131 121 -131 211 0 25 2 26 38 20 20 -4 66
-11 102 -16 144 -19 287 -41 329 -50 24 -6 46 -8 50 -4 3 3 5 43 5 88 -2 67
-7 92 -28 133 -33 66 -99 120 -177 144 -77 24 -130 23 -199 -4z m205 -68 c22
-10 50 -26 62 -36 30 -24 73 -120 73 -162 0 -30 -2 -33 -23 -27 -13 3 -57 8
-98 12 -41 3 -88 10 -106 15 -17 6 -71 14 -119 19 -48 5 -91 13 -96 18 -14 14
33 107 66 133 14 11 50 29 79 39 57 21 96 18 162 -11z"/>
<path d="M4426 8825 c-15 -8 -33 -15 -40 -16 -22 -1 -101 -66 -128 -105 -14
-21 -33 -68 -42 -104 -13 -55 -13 -74 -2 -125 7 -33 21 -76 30 -95 26 -51 115
-138 148 -145 15 -4 30 -11 33 -16 10 -15 159 -11 201 6 93 37 142 75 174 137
l20 38 -27 17 c-26 17 -27 17 -47 -12 -46 -65 -96 -103 -161 -120 -61 -17 -64
-17 -127 4 -95 32 -151 101 -172 213 -17 92 32 190 121 240 72 41 135 46 202
17 52 -22 54 -22 67 -4 22 30 17 43 -26 65 -49 25 -179 28 -224 5z"/>
<path d="M6405 8778 c-8 -18 -42 -98 -75 -178 -34 -80 -72 -169 -86 -198 -13
-29 -24 -56 -24 -60 -1 -4 -9 -25 -20 -47 -25 -52 -25 -52 11 -70 29 -15 32
-15 45 2 7 10 14 22 14 26 0 4 28 74 63 155 46 109 72 158 102 188 53 55 107
71 189 55 109 -23 158 -72 164 -166 4 -65 9 -50 -114 -342 -19 -45 -34 -86
-34 -91 0 -6 13 -15 29 -20 40 -14 37 -18 122 184 97 230 104 267 65 349 -26
57 -70 99 -136 129 -60 27 -190 29 -238 4 -22 -11 -32 -13 -29 -5 33 88 33 88
12 103 -29 22 -44 17 -60 -18z"/>
<path d="M3785 8541 c-75 -20 -163 -84 -210 -153 -40 -60 -44 -83 -16 -98 28
-14 29 -14 50 28 20 39 74 94 130 132 27 18 48 24 97 24 61 1 65 0 103 -39 56
-57 60 -81 21 -103 -111 -61 -216 -132 -243 -166 -61 -76 -42 -196 39 -246 43
-27 140 -27 200 0 83 38 147 111 164 185 l7 30 19 -32 c19 -32 36 -39 68 -27
23 9 20 36 -9 78 -14 20 -25 39 -25 42 0 2 -22 41 -50 85 -27 44 -50 83 -50
85 0 16 -85 127 -113 149 -37 27 -127 41 -182 26z m268 -282 c33 -48 36 -112
8 -167 -34 -67 -109 -120 -180 -129 -49 -6 -52 -4 -91 34 -70 71 -50 134 67
209 29 19 55 34 58 34 2 0 26 14 52 30 26 17 49 30 52 30 4 -1 18 -19 34 -41z"/>
<path d="M7092 8340 c-61 -28 -146 -117 -177 -185 -53 -121 -26 -245 76 -341
70 -65 127 -88 214 -82 36 2 65 1 65 -3 0 -4 -11 -21 -25 -37 -31 -37 -31 -43
0 -72 l25 -24 18 24 c9 13 26 36 37 51 35 47 358 459 417 533 32 39 58 79 58
88 0 24 -40 50 -57 37 -17 -15 -184 -229 -190 -245 -2 -7 -11 -15 -18 -18 -10
-3 -17 10 -24 45 -23 106 -75 171 -176 220 -74 36 -174 39 -243 9z m242 -86
c52 -27 65 -40 104 -107 80 -139 -63 -357 -233 -357 -146 0 -267 145 -235 280
32 132 147 226 264 215 27 -2 72 -16 100 -31z"/>
<path d="M3108 8269 c-69 -10 -135 -60 -293 -219 l-139 -141 289 -289 c160
-160 297 -290 306 -290 15 0 255 244 322 328 33 41 61 100 70 149 13 65 -50
169 -125 209 -36 19 -138 18 -164 -1 -34 -26 -39 -18 -36 56 3 63 1 75 -22
108 -53 76 -116 103 -208 90z m89 -87 c76 -41 101 -119 63 -197 -22 -46 -232
-275 -252 -275 -14 0 -218 191 -218 204 0 6 48 61 108 122 147 153 220 188
299 146z m338 -265 c44 -42 45 -45 45 -105 0 -59 -1 -62 -59 -134 -33 -40
-100 -113 -150 -162 l-90 -90 -111 109 c-60 60 -110 113 -110 118 0 17 223
238 275 273 40 26 60 33 102 33 49 1 56 -2 98 -42z"/>
<path d="M7386 7539 c-32 -25 -33 -59 -3 -87 28 -26 45 -27 75 -6 43 30 18
114 -34 114 -6 0 -23 -9 -38 -21z"/>
<path d="M8420 7074 c-69 -25 -163 -58 -210 -73 -47 -16 -96 -33 -110 -39 -14
-5 -85 -29 -158 -52 -108 -35 -132 -46 -127 -59 4 -9 20 -56 36 -106 17 -49
35 -94 40 -99 5 -6 9 -20 9 -33 0 -12 7 -39 16 -60 47 -107 70 -145 121 -198
128 -132 300 -159 479 -74 79 37 142 101 185 186 32 65 34 73 34 173 -1 94 -4
116 -38 215 -21 61 -42 118 -47 127 -6 10 -10 26 -10 35 0 10 -9 37 -20 61
-24 54 -36 54 -200 -4z m167 -119 c13 -39 30 -83 37 -100 18 -42 46 -164 46
-203 0 -183 -168 -342 -361 -342 -115 0 -248 92 -300 207 -16 34 -43 106 -60
160 -18 54 -36 104 -42 111 -5 7 -7 15 -3 19 9 9 72 32 121 44 21 6 44 14 50
18 5 4 28 13 50 19 22 6 126 40 230 76 105 36 194 64 199 63 5 -2 19 -34 33
-72z"/>
<path d="M2731 6464 c-25 -32 -25 -33 -5 -62 11 -16 25 -22 55 -22 33 0 41 4
49 25 26 69 -54 116 -99 59z"/>
<path d="M1890 6311 c0 -50 10 -53 275 -75 90 -8 92 -12 31 -70 -42 -41 -57
-64 -70 -108 -63 -219 79 -408 309 -408 111 0 205 52 267 149 26 42 28 51 28
155 0 117 -8 143 -61 199 l-20 22 58 5 c45 4 59 9 61 23 8 42 -23 50 -308 77
-170 16 -303 31 -412 46 -153 20 -158 20 -158 -15z m626 -123 c70 -30 101 -56
130 -106 23 -39 26 -52 22 -125 -4 -105 -35 -158 -118 -200 -49 -26 -63 -28
-130 -24 -89 4 -144 29 -189 84 -40 48 -55 102 -48 176 8 89 46 144 127 184
79 39 136 42 206 11z"/>
<path d="M8260 6103 c-8 -3 -38 -21 -67 -40 -100 -66 -140 -174 -123 -331 6
-56 15 -81 45 -126 39 -59 66 -71 85 -36 9 16 4 29 -27 72 -35 49 -38 58 -42
135 -3 70 0 89 19 125 30 59 57 86 112 114 56 28 78 30 78 7 0 -13 23 -408 30
-510 0 -8 49 -1 98 13 137 40 213 132 220 265 6 100 -18 170 -79 231 -72 72
-113 88 -234 87 -55 0 -107 -3 -115 -6z m238 -82 c59 -30 100 -80 122 -149 20
-61 20 -64 3 -115 -23 -68 -95 -141 -153 -157 -23 -6 -45 -8 -48 -5 -10 10
-20 157 -21 308 l-1 137 30 0 c17 0 47 -9 68 -19z"/>
<path d="M2575 5524 c-44 -8 -111 -18 -150 -23 -152 -19 -234 -61 -275 -142
-25 -48 -28 -179 -5 -223 8 -15 15 -33 15 -40 0 -13 46 -63 86 -95 23 -18 26
-24 14 -31 -8 -6 -32 -10 -54 -10 l-38 0 7 -37 c4 -21 8 -38 8 -39 8 -5 160
21 190 32 20 8 63 14 95 14 31 1 77 5 102 11 25 5 83 14 130 20 47 6 89 15 93
19 5 4 5 23 2 42 l-7 35 -71 -13 c-115 -20 -280 -44 -308 -44 -45 0 -115 30
-148 63 -41 43 -75 138 -66 186 22 117 86 158 285 181 41 5 112 17 158 26 79
16 82 18 82 44 0 44 -16 47 -145 24z"/>
<path d="M8585 5388 c-29 -9 -130 -34 -250 -62 -77 -18 -298 -76 -301 -79 -1
-1 -5 -18 -9 -37 -5 -28 -2 -39 12 -52 10 -9 124 -87 253 -173 129 -87 242
-164 251 -171 23 -21 38 -17 49 12 14 35 44 11 -308 248 -89 60 -162 112 -162
116 0 4 28 14 63 23 34 8 82 21 107 27 25 6 72 18 105 25 33 7 97 23 143 34
135 35 152 44 152 84 0 13 -8 17 -37 16 -21 0 -51 -5 -68 -11z"/>
<path d="M7926 4808 c-19 -27 -21 -48 -4 -48 6 0 41 -12 77 -26 36 -15 86 -33
111 -40 25 -7 117 -38 205 -69 319 -112 360 -126 387 -135 24 -7 30 -5 49 21
12 17 19 32 16 35 -6 6 -138 53 -292 104 -66 22 -133 45 -150 51 -250 91 -362
129 -377 129 -4 0 -14 -10 -22 -22z"/>
<path d="M2735 4799 c-6 -17 0 -27 26 -48 61 -46 97 -92 118 -150 22 -60 28
-136 12 -146 -5 -3 -12 -18 -16 -34 -7 -32 -89 -115 -107 -109 -15 5 -18 12
-73 143 -25 61 -50 119 -55 130 -5 11 -18 40 -28 65 -50 116 -56 130 -63 130
-47 0 -153 -90 -191 -163 -34 -64 -31 -173 6 -250 80 -163 253 -220 419 -138
123 61 181 153 181 281 -1 102 -41 188 -122 260 -61 54 -96 64 -107 29z m-190
-139 c8 -14 41 -88 73 -165 98 -234 96 -220 37 -231 -45 -8 -138 20 -177 54
-43 38 -78 116 -78 173 0 60 31 129 76 168 40 36 50 36 69 1z"/>
<path d="M7901 4528 c-49 -16 -77 -33 -111 -67 -153 -154 -140 -375 30 -493
68 -47 105 -58 195 -58 53 0 82 6 120 24 54 25 118 84 142 130 27 52 54 159
47 191 -16 80 -40 130 -85 179 -51 56 -84 75 -168 100 -68 20 -91 19 -170 -6z
m209 -90 c144 -69 184 -244 86 -373 -36 -46 -113 -85 -170 -85 -94 0 -209 69
-251 151 -28 53 -23 153 10 212 67 118 196 156 325 95z"/>
<path d="M3033 4288 c-9 -20 -4 -28 32 -63 25 -25 44 -54 48 -74 12 -59 -15
-90 -172 -196 -25 -17 -76 -51 -115 -78 -39 -26 -75 -46 -80 -44 -5 2 -32 36
-59 75 -42 63 -51 71 -68 62 -29 -16 -23 -51 21 -110 22 -29 40 -60 40 -67 0
-7 -20 -28 -45 -45 -47 -33 -54 -51 -31 -80 18 -25 32 -23 76 12 36 28 70 39
70 23 0 -5 10 -21 23 -37 18 -22 28 -27 45 -22 27 9 28 36 2 69 -29 37 -25 51
28 85 268 175 311 211 336 277 16 41 16 45 -4 96 -23 58 -59 103 -102 125 -34
18 -33 18 -45 -8z"/>
<path d="M7322 4158 c-9 -21 0 -33 106 -137 l117 -114 -55 -7 c-76 -10 -121
-31 -178 -84 -72 -67 -94 -119 -94 -221 0 -103 20 -152 94 -225 72 -71 124
-94 223 -94 84 -1 127 14 201 70 52 39 96 128 102 207 3 37 7 67 10 67 3 0 20
-13 37 -30 27 -26 33 -28 55 -17 49 26 50 25 -230 289 -74 69 -180 169 -235
222 -104 99 -134 114 -153 74z m269 -329 c99 -38 154 -96 184 -194 16 -50 16
-57 1 -103 -36 -108 -133 -192 -221 -192 -85 0 -175 53 -230 135 -31 48 -35
61 -35 120 0 108 59 192 163 233 66 26 75 26 138 1z"/>
<path d="M3201 3784 c-158 -163 -191 -215 -191 -297 0 -72 25 -123 89 -186 50
-49 123 -78 209 -83 l43 -3 -36 -38 c-35 -37 -36 -39 -19 -58 9 -10 25 -19 34
-19 9 0 86 73 170 163 84 89 175 185 202 214 53 56 58 85 16 99 -18 5 -44 -17
-157 -134 -109 -112 -145 -143 -183 -157 -151 -55 -327 103 -278 249 8 25 61
90 157 192 140 150 144 156 127 175 -9 10 -25 19 -34 19 -10 0 -77 -61 -149
-136z"/>
<path d="M6885 3444 c-112 -36 -227 -146 -229 -221 -1 -28 4 -37 21 -44 20 -7
25 -3 41 34 76 172 296 225 414 100 l27 -28 -32 -21 c-33 -22 -61 -39 -282
-177 -69 -43 -125 -84 -125 -90 0 -22 81 -107 128 -135 42 -24 57 -27 137 -27
99 0 125 9 201 71 96 78 130 211 85 332 -61 162 -233 254 -386 206z m319 -239
c23 -34 21 -126 -3 -173 -23 -44 -73 -93 -118 -116 -44 -22 -160 -22 -193 1
-33 21 -80 65 -80 73 0 7 91 70 120 83 8 4 67 41 130 82 63 40 118 74 121 74
4 1 14 -10 23 -24z"/>
<path d="M3860 3371 c-168 -55 -265 -237 -215 -406 22 -79 112 -170 198 -203
69 -26 159 -29 201 -7 15 8 34 15 40 15 23 0 122 99 143 142 46 95 52 147 29
233 -36 137 -147 224 -295 231 -42 2 -87 0 -101 -5z m216 -97 c29 -17 62 -50
82 -79 28 -43 32 -58 32 -115 0 -119 -73 -224 -177 -257 -100 -32 -215 13
-275 106 -24 39 -28 55 -28 117 0 58 5 80 26 118 29 52 78 102 127 129 51 29
151 20 213 -19z"/>
<path d="M6413 3203 c-27 -5 -29 -20 -7 -70 37 -84 44 -102 79 -200 32 -86 37
-112 33 -162 -5 -68 -34 -115 -99 -158 -68 -45 -44 -106 27 -68 48 26 82 66
104 121 l18 49 20 -46 c11 -26 25 -50 31 -53 17 -11 63 25 55 43 -4 9 -22 57
-41 106 -18 50 -38 99 -42 110 -8 17 -25 63 -57 150 -66 181 -71 188 -121 178z"/>
<path d="M4632 3097 c-13 -16 -42 -103 -42 -125 0 -10 -4 -22 -9 -27 -4 -6
-20 -50 -36 -98 -32 -105 -74 -164 -135 -194 -49 -24 -85 -28 -124 -13 -34 13
-53 4 -61 -27 -8 -35 7 -43 88 -43 68 0 110 13 151 49 18 15 19 15 13 -1 -23
-63 -28 -101 -15 -109 25 -17 55 -10 61 14 3 12 16 54 30 92 14 39 44 131 67
205 23 74 48 153 57 176 19 54 14 95 -14 105 -14 5 -25 3 -31 -4z"/>
<path d="M5261 2873 c-8 -70 -16 -149 -18 -175 -5 -44 -7 -48 -31 -48 -48 1
-356 30 -384 36 -27 6 -28 4 -28 -30 0 -43 -3 -42 170 -56 146 -12 249 -25
257 -34 4 -3 1 -34 -5 -69 -6 -34 -14 -104 -18 -155 -4 -51 -10 -95 -14 -97
-8 -5 -293 21 -399 36 -60 9 -75 8 -82 -3 -17 -26 -9 -46 19 -52 113 -24 520
-71 530 -61 10 10 26 141 62 500 6 66 18 165 25 220 7 55 12 101 11 101 0 1
-19 5 -42 8 l-40 7 -13 -128z"/>
</g>
</svg>
